<mxfile host="app.diagrams.net" agent="Mozilla/5.0 (Macintosh; Intel Mac OS X 10_15_7) AppleWebKit/537.36 (KHTML, like Gecko) Chrome/133.0.0.0 Safari/537.36" version="26.0.13">
  <diagram name="Sayfa -1" id="T5c-29nnTJdJgavPYzRY">
    <mxGraphModel dx="1965" dy="510" grid="1" gridSize="10" guides="1" tooltips="1" connect="1" arrows="1" fold="1" page="1" pageScale="1" pageWidth="1169" pageHeight="827" math="0" shadow="0">
      <root>
        <mxCell id="0" />
        <mxCell id="1" parent="0" />
        <mxCell id="g16Wq1d4LQn0EkF3N1o3-5" value="&lt;div&gt;&lt;br&gt;&lt;/div&gt;" style="points=[[0,0],[0.25,0],[0.5,0],[0.75,0],[1,0],[1,0.25],[1,0.5],[1,0.75],[1,1],[0.75,1],[0.5,1],[0.25,1],[0,1],[0,0.75],[0,0.5],[0,0.25]];outlineConnect=0;html=1;whiteSpace=wrap;fontSize=12;fontStyle=0;container=1;pointerEvents=0;collapsible=0;recursiveResize=0;shape=mxgraph.aws4.group;grIcon=mxgraph.aws4.group_security_group;grStroke=0;verticalAlign=top;align=left;spacingLeft=30;dashed=0;fillColor=none;strokeColor=default;" parent="1" vertex="1">
          <mxGeometry x="-1160" y="10" width="1160" height="810" as="geometry" />
        </mxCell>
        <mxCell id="crF3Aw2DtqwCxkJPiTV9-11" value="AWS Systems Manager" style="sketch=0;outlineConnect=0;fontColor=#232F3E;gradientColor=none;strokeColor=#ffffff;fillColor=#232F3E;dashed=0;verticalLabelPosition=middle;verticalAlign=bottom;align=center;html=1;whiteSpace=wrap;fontSize=10;fontStyle=1;spacing=3;shape=mxgraph.aws4.productIcon;prIcon=mxgraph.aws4.systems_manager;" parent="g16Wq1d4LQn0EkF3N1o3-5" vertex="1">
          <mxGeometry x="440" y="590" width="80" height="110" as="geometry" />
        </mxCell>
        <mxCell id="crF3Aw2DtqwCxkJPiTV9-27" value="Amazon CloudWatch" style="sketch=0;outlineConnect=0;fontColor=#232F3E;gradientColor=none;strokeColor=#ffffff;fillColor=#232F3E;dashed=0;verticalLabelPosition=middle;verticalAlign=bottom;align=center;html=1;whiteSpace=wrap;fontSize=10;fontStyle=1;spacing=3;shape=mxgraph.aws4.productIcon;prIcon=mxgraph.aws4.cloudwatch;" parent="g16Wq1d4LQn0EkF3N1o3-5" vertex="1">
          <mxGeometry x="320" y="590" width="80" height="110" as="geometry" />
        </mxCell>
        <mxCell id="crF3Aw2DtqwCxkJPiTV9-83" value="" style="group" parent="g16Wq1d4LQn0EkF3N1o3-5" connectable="0" vertex="1">
          <mxGeometry x="200" y="590" width="80" height="110" as="geometry" />
        </mxCell>
        <mxCell id="crF3Aw2DtqwCxkJPiTV9-17" value="Amazon S3" style="sketch=0;outlineConnect=0;fontColor=#232F3E;gradientColor=none;strokeColor=#ffffff;fillColor=#232F3E;dashed=0;verticalLabelPosition=middle;verticalAlign=bottom;align=center;html=1;whiteSpace=wrap;fontSize=10;fontStyle=1;spacing=3;shape=mxgraph.aws4.productIcon;prIcon=mxgraph.aws4.s3;" parent="crF3Aw2DtqwCxkJPiTV9-83" vertex="1">
          <mxGeometry width="80" height="100" as="geometry" />
        </mxCell>
        <mxCell id="crF3Aw2DtqwCxkJPiTV9-82" value="" style="rounded=0;whiteSpace=wrap;html=1;fillColor=none;strokeColor=none;" parent="crF3Aw2DtqwCxkJPiTV9-83" vertex="1">
          <mxGeometry width="80" height="110" as="geometry" />
        </mxCell>
        <mxCell id="crF3Aw2DtqwCxkJPiTV9-54" style="edgeStyle=orthogonalEdgeStyle;rounded=0;orthogonalLoop=1;jettySize=auto;html=1;" parent="g16Wq1d4LQn0EkF3N1o3-5" source="crF3Aw2DtqwCxkJPiTV9-18" target="crF3Aw2DtqwCxkJPiTV9-9" edge="1">
          <mxGeometry relative="1" as="geometry" />
        </mxCell>
        <mxCell id="crF3Aw2DtqwCxkJPiTV9-55" style="edgeStyle=orthogonalEdgeStyle;rounded=0;orthogonalLoop=1;jettySize=auto;html=1;" parent="g16Wq1d4LQn0EkF3N1o3-5" source="crF3Aw2DtqwCxkJPiTV9-18" target="crF3Aw2DtqwCxkJPiTV9-19" edge="1">
          <mxGeometry relative="1" as="geometry" />
        </mxCell>
        <mxCell id="crF3Aw2DtqwCxkJPiTV9-18" value="Amazon Route 53" style="sketch=0;outlineConnect=0;fontColor=#232F3E;gradientColor=none;strokeColor=#ffffff;fillColor=#232F3E;dashed=0;verticalLabelPosition=middle;verticalAlign=bottom;align=center;html=1;whiteSpace=wrap;fontSize=10;fontStyle=1;spacing=3;shape=mxgraph.aws4.productIcon;prIcon=mxgraph.aws4.route_53;" parent="g16Wq1d4LQn0EkF3N1o3-5" vertex="1">
          <mxGeometry x="560" y="70" width="80" height="110" as="geometry" />
        </mxCell>
        <mxCell id="crF3Aw2DtqwCxkJPiTV9-56" style="edgeStyle=orthogonalEdgeStyle;rounded=0;orthogonalLoop=1;jettySize=auto;html=1;" parent="g16Wq1d4LQn0EkF3N1o3-5" source="crF3Aw2DtqwCxkJPiTV9-19" target="crF3Aw2DtqwCxkJPiTV9-18" edge="1">
          <mxGeometry relative="1" as="geometry">
            <Array as="points">
              <mxPoint x="500" y="135" />
            </Array>
          </mxGeometry>
        </mxCell>
        <mxCell id="fNsbauxDB0n5MSb_HVhL-3" style="edgeStyle=orthogonalEdgeStyle;rounded=0;orthogonalLoop=1;jettySize=auto;html=1;" edge="1" parent="g16Wq1d4LQn0EkF3N1o3-5" source="crF3Aw2DtqwCxkJPiTV9-19" target="crF3Aw2DtqwCxkJPiTV9-82">
          <mxGeometry relative="1" as="geometry" />
        </mxCell>
        <mxCell id="crF3Aw2DtqwCxkJPiTV9-19" value="Amazon Cloudfront" style="sketch=0;outlineConnect=0;fontColor=#232F3E;gradientColor=none;strokeColor=#ffffff;fillColor=#232F3E;dashed=0;verticalLabelPosition=middle;verticalAlign=bottom;align=center;html=1;whiteSpace=wrap;fontSize=10;fontStyle=1;spacing=3;shape=mxgraph.aws4.productIcon;prIcon=mxgraph.aws4.cloudfront;" parent="g16Wq1d4LQn0EkF3N1o3-5" vertex="1">
          <mxGeometry x="480" y="270" width="80" height="110" as="geometry" />
        </mxCell>
        <mxCell id="fNsbauxDB0n5MSb_HVhL-10" style="edgeStyle=orthogonalEdgeStyle;rounded=0;orthogonalLoop=1;jettySize=auto;html=1;" edge="1" parent="g16Wq1d4LQn0EkF3N1o3-5" source="crF3Aw2DtqwCxkJPiTV9-9" target="crF3Aw2DtqwCxkJPiTV9-7">
          <mxGeometry relative="1" as="geometry" />
        </mxCell>
        <mxCell id="crF3Aw2DtqwCxkJPiTV9-9" value="Amazon API Gateway" style="sketch=0;outlineConnect=0;fontColor=#232F3E;gradientColor=none;strokeColor=#ffffff;fillColor=#232F3E;dashed=0;verticalLabelPosition=middle;verticalAlign=bottom;align=center;html=1;whiteSpace=wrap;fontSize=10;fontStyle=1;spacing=3;shape=mxgraph.aws4.productIcon;prIcon=mxgraph.aws4.api_gateway;" parent="g16Wq1d4LQn0EkF3N1o3-5" vertex="1">
          <mxGeometry x="640" y="270" width="80" height="110" as="geometry" />
        </mxCell>
        <mxCell id="fNsbauxDB0n5MSb_HVhL-5" style="edgeStyle=orthogonalEdgeStyle;rounded=0;orthogonalLoop=1;jettySize=auto;html=1;" edge="1" parent="g16Wq1d4LQn0EkF3N1o3-5" source="crF3Aw2DtqwCxkJPiTV9-7" target="crF3Aw2DtqwCxkJPiTV9-82">
          <mxGeometry relative="1" as="geometry" />
        </mxCell>
        <mxCell id="fNsbauxDB0n5MSb_HVhL-6" style="edgeStyle=orthogonalEdgeStyle;rounded=0;orthogonalLoop=1;jettySize=auto;html=1;" edge="1" parent="g16Wq1d4LQn0EkF3N1o3-5" source="crF3Aw2DtqwCxkJPiTV9-7" target="crF3Aw2DtqwCxkJPiTV9-27">
          <mxGeometry relative="1" as="geometry" />
        </mxCell>
        <mxCell id="fNsbauxDB0n5MSb_HVhL-7" style="edgeStyle=orthogonalEdgeStyle;rounded=0;orthogonalLoop=1;jettySize=auto;html=1;" edge="1" parent="g16Wq1d4LQn0EkF3N1o3-5" source="crF3Aw2DtqwCxkJPiTV9-7" target="crF3Aw2DtqwCxkJPiTV9-11">
          <mxGeometry relative="1" as="geometry" />
        </mxCell>
        <mxCell id="fNsbauxDB0n5MSb_HVhL-8" style="edgeStyle=orthogonalEdgeStyle;rounded=0;orthogonalLoop=1;jettySize=auto;html=1;" edge="1" parent="g16Wq1d4LQn0EkF3N1o3-5" source="crF3Aw2DtqwCxkJPiTV9-7" target="fNsbauxDB0n5MSb_HVhL-1">
          <mxGeometry relative="1" as="geometry" />
        </mxCell>
        <mxCell id="fNsbauxDB0n5MSb_HVhL-9" style="edgeStyle=orthogonalEdgeStyle;rounded=0;orthogonalLoop=1;jettySize=auto;html=1;" edge="1" parent="g16Wq1d4LQn0EkF3N1o3-5" source="crF3Aw2DtqwCxkJPiTV9-7" target="fNsbauxDB0n5MSb_HVhL-2">
          <mxGeometry relative="1" as="geometry" />
        </mxCell>
        <mxCell id="fNsbauxDB0n5MSb_HVhL-16" style="edgeStyle=orthogonalEdgeStyle;rounded=0;orthogonalLoop=1;jettySize=auto;html=1;" edge="1" parent="g16Wq1d4LQn0EkF3N1o3-5" source="crF3Aw2DtqwCxkJPiTV9-7" target="fNsbauxDB0n5MSb_HVhL-15">
          <mxGeometry relative="1" as="geometry" />
        </mxCell>
        <mxCell id="crF3Aw2DtqwCxkJPiTV9-7" value="AWS Lambda" style="sketch=0;outlineConnect=0;fontColor=#232F3E;gradientColor=none;strokeColor=#ffffff;fillColor=#232F3E;dashed=0;verticalLabelPosition=middle;verticalAlign=bottom;align=center;html=1;whiteSpace=wrap;fontSize=10;fontStyle=1;spacing=3;shape=mxgraph.aws4.productIcon;prIcon=mxgraph.aws4.lambda;" parent="g16Wq1d4LQn0EkF3N1o3-5" vertex="1">
          <mxGeometry x="560" y="430" width="80" height="100" as="geometry" />
        </mxCell>
        <mxCell id="fNsbauxDB0n5MSb_HVhL-1" value="Amazon Translate" style="sketch=0;outlineConnect=0;fontColor=#232F3E;gradientColor=none;strokeColor=#ffffff;fillColor=#232F3E;dashed=0;verticalLabelPosition=middle;verticalAlign=bottom;align=center;html=1;whiteSpace=wrap;fontSize=10;fontStyle=1;spacing=3;shape=mxgraph.aws4.productIcon;prIcon=mxgraph.aws4.translate;" vertex="1" parent="g16Wq1d4LQn0EkF3N1o3-5">
          <mxGeometry x="920" y="590" width="80" height="110" as="geometry" />
        </mxCell>
        <mxCell id="fNsbauxDB0n5MSb_HVhL-2" value="Amazon Polly" style="sketch=0;outlineConnect=0;fontColor=#232F3E;gradientColor=none;strokeColor=#ffffff;fillColor=#232F3E;dashed=0;verticalLabelPosition=middle;verticalAlign=bottom;align=center;html=1;whiteSpace=wrap;fontSize=10;fontStyle=1;spacing=3;shape=mxgraph.aws4.productIcon;prIcon=mxgraph.aws4.polly;" vertex="1" parent="g16Wq1d4LQn0EkF3N1o3-5">
          <mxGeometry x="800" y="590" width="80" height="100" as="geometry" />
        </mxCell>
        <mxCell id="fNsbauxDB0n5MSb_HVhL-13" value="" style="group" vertex="1" connectable="0" parent="g16Wq1d4LQn0EkF3N1o3-5">
          <mxGeometry x="680" y="590" width="80" height="110" as="geometry" />
        </mxCell>
        <mxCell id="fNsbauxDB0n5MSb_HVhL-11" value="OpenAI&lt;div&gt;Whisper&lt;/div&gt;" style="image;aspect=fixed;html=1;points=[];align=center;fontSize=12;image=img/lib/azure2/ai_machine_learning/Azure_OpenAI.svg;" vertex="1" parent="fNsbauxDB0n5MSb_HVhL-13">
          <mxGeometry x="6" width="68" height="68" as="geometry" />
        </mxCell>
        <mxCell id="fNsbauxDB0n5MSb_HVhL-12" value="" style="rounded=0;whiteSpace=wrap;html=1;fillColor=none;strokeColor=none;" vertex="1" parent="fNsbauxDB0n5MSb_HVhL-13">
          <mxGeometry width="80" height="110" as="geometry" />
        </mxCell>
        <mxCell id="fNsbauxDB0n5MSb_HVhL-14" style="edgeStyle=orthogonalEdgeStyle;rounded=0;orthogonalLoop=1;jettySize=auto;html=1;" edge="1" parent="g16Wq1d4LQn0EkF3N1o3-5" source="crF3Aw2DtqwCxkJPiTV9-7" target="fNsbauxDB0n5MSb_HVhL-12">
          <mxGeometry relative="1" as="geometry" />
        </mxCell>
        <mxCell id="fNsbauxDB0n5MSb_HVhL-15" value="Amazon DynamoDB" style="sketch=0;outlineConnect=0;fontColor=#232F3E;gradientColor=none;strokeColor=#ffffff;fillColor=#232F3E;dashed=0;verticalLabelPosition=middle;verticalAlign=bottom;align=center;html=1;whiteSpace=wrap;fontSize=10;fontStyle=1;spacing=3;shape=mxgraph.aws4.productIcon;prIcon=mxgraph.aws4.dynamodb;" vertex="1" parent="g16Wq1d4LQn0EkF3N1o3-5">
          <mxGeometry x="560" y="590" width="80" height="110" as="geometry" />
        </mxCell>
      </root>
    </mxGraphModel>
  </diagram>
</mxfile>
